<svg width="61" height="61" viewBox="0 0 61 61" fill="none" xmlns="http://www.w3.org/2000/svg">
<circle cx="30.0242" cy="30.0242" r="29.5242" fill="white" stroke="black"/>
<path d="M38.1759 14.8252C38.7831 14.1864 39.0858 13.8679 39.3885 13.6543C39.9955 13.2277 40.709 13 41.439 13C42.169 13 42.8826 13.2277 43.4896 13.6543C43.7923 13.8679 44.095 14.1864 44.7022 14.8252C45.3076 15.4622 45.6103 15.7826 45.8133 16.0991C46.2192 16.7379 46.4358 17.489 46.4358 18.2574C46.4358 19.0258 46.2192 19.7769 45.8133 20.4157C45.6103 20.7323 45.3076 21.0527 44.7022 21.6896L24.7061 42.7272C24.2188 43.2418 23.9733 43.4981 23.6909 43.702C23.4067 43.9059 23.0911 44.0516 22.4599 44.3428L20.7618 45.1293C17.0963 46.8264 15.2617 47.675 14.3702 46.7371C13.4769 45.7973 14.2835 43.869 15.8966 40.0106L16.6441 38.2242C16.921 37.5601 17.0613 37.228 17.2532 36.9309C17.4488 36.6319 17.6925 36.3755 18.1816 35.8629L38.1759 14.8252Z" stroke="black" stroke-linecap="round"/>
<path d="M33.1133 20.0818L39.6396 26.9481" stroke="black"/>
</svg>
