<svg width="61" height="61" viewBox="0 0 61 61" fill="none" xmlns="http://www.w3.org/2000/svg">
<circle cx="30.0242" cy="30.0242" r="29.5242" fill="white" stroke="black"/>
<path d="M18.2853 13.1814V23.3892ZM13.1814 18.2853H23.3892ZM19.3061 38.7009V46.8671ZM15.223 42.784H23.3892ZM30.551 26.0085C26.2269 27.2457 24.0649 27.8622 23.7526 28.9545C23.6484 29.3201 23.6484 29.7076 23.7526 30.0732C24.0649 31.1655 26.2269 31.782 30.551 33.0192C31.4186 33.2662 31.8514 33.3908 32.1801 33.6603C32.2984 33.7582 32.4052 33.8691 32.4986 33.991C32.7579 34.3278 32.8681 34.7668 33.0866 35.6426C34.3421 40.6608 34.9689 43.1698 36.1285 43.4822C36.4756 43.5761 36.843 43.5761 37.1901 43.4822C38.3497 43.1719 38.9765 40.6608 40.232 35.6426C40.4505 34.7647 40.5587 34.3278 40.82 33.9889C40.9136 33.8685 41.0204 33.7589 41.1385 33.6623C41.4651 33.3908 41.9 33.2662 42.7656 33.0192C47.0937 31.782 49.2537 31.1655 49.564 30.0732C49.6682 29.7076 49.6682 29.3201 49.564 28.9545C49.2537 27.8622 47.0937 27.2457 42.7656 26.0085C41.9 25.7615 41.4672 25.6369 41.1385 25.3674C41.0202 25.2695 40.9134 25.1586 40.82 25.0367C40.5587 24.6999 40.4505 24.2609 40.232 23.3851C38.9765 18.367 38.3497 15.8558 37.1901 15.5455C36.8424 15.4519 36.4762 15.4519 36.1285 15.5455C34.9689 15.8558 34.3421 18.367 33.0866 23.3851C32.8681 24.263 32.7599 24.6999 32.4986 25.0388C32.405 25.1592 32.2982 25.2688 32.1801 25.3654C31.8535 25.6369 31.4166 25.7615 30.551 26.0085Z" fill="black"/>
<path d="M18.2853 13.1814V23.3892M13.1814 18.2853H23.3892M19.3061 38.7009V46.8671M15.223 42.784H23.3892M30.551 26.0085C26.2269 27.2457 24.0649 27.8622 23.7526 28.9545C23.6484 29.3201 23.6484 29.7076 23.7526 30.0732C24.0649 31.1655 26.2269 31.782 30.551 33.0192C31.4186 33.2662 31.8514 33.3908 32.1801 33.6603C32.2984 33.7582 32.4052 33.8691 32.4986 33.991C32.7579 34.3278 32.8681 34.7668 33.0866 35.6426C34.3421 40.6608 34.9689 43.1698 36.1285 43.4822C36.4756 43.5761 36.843 43.5761 37.1901 43.4822C38.3497 43.1719 38.9765 40.6608 40.232 35.6426C40.4505 34.7647 40.5587 34.3278 40.82 33.9889C40.9136 33.8685 41.0204 33.7589 41.1385 33.6623C41.4651 33.3908 41.9 33.2662 42.7656 33.0192C47.0937 31.782 49.2537 31.1655 49.564 30.0732C49.6682 29.7076 49.6682 29.3201 49.564 28.9545C49.2537 27.8622 47.0937 27.2457 42.7656 26.0085C41.9 25.7615 41.4672 25.6369 41.1385 25.3674C41.0202 25.2695 40.9134 25.1586 40.82 25.0367C40.5587 24.6999 40.4505 24.2609 40.232 23.3851C38.9765 18.367 38.3497 15.8558 37.1901 15.5455C36.8424 15.4519 36.4762 15.4519 36.1285 15.5455C34.9689 15.8558 34.3421 18.367 33.0866 23.3851C32.8681 24.263 32.7599 24.6999 32.4986 25.0388C32.405 25.1592 32.2982 25.2688 32.1801 25.3654C31.8535 25.6369 31.4166 25.7615 30.551 26.0085Z" stroke="black" stroke-linecap="round" stroke-linejoin="round"/>
</svg>
