<svg width="61" height="61" viewBox="0 0 61 61" fill="none" xmlns="http://www.w3.org/2000/svg">
<circle cx="30.0242" cy="30.0242" r="29.5242" fill="white" stroke="black"/>
<path d="M40.4926 36.3803C38.9984 35.7181 37.7291 35.1527 36.6494 34.6689C34.8926 33.8815 32.9759 35.7883 33.878 37.439L36.0908 41.488C37.2949 43.687 38.7003 46.1232 41.2072 46.7209C44.4168 47.4855 47.1428 45.1461 46.8447 42.1445C46.5506 39.1979 43.2917 37.6174 40.4926 36.3803ZM22.0483 28.9465L15.9883 22.0591C14.8888 20.8163 13.1814 21.4178 13.1814 23.0476V31.9595C13.1814 33.9764 13.1893 36.2134 14.6737 37.6383C17.9563 40.7974 24.7348 38.6628 24.7881 34.0504C24.8098 32.0847 23.3669 30.4454 22.0483 28.9465ZM36.8685 13.1814H25.4C23.7083 13.1814 23.1497 14.7467 24.4801 15.7504L30.929 20.6209C33.5424 22.5942 36.985 24.8046 39.7149 22.9831C43.4654 20.4862 43.495 13.5628 36.8685 13.1814Z" fill="black" stroke="black" stroke-linecap="round"/>
</svg>
